<?xml version="1.0" encoding="utf-8"?>
<!-- Generator: Adobe Illustrator 16.2.1, SVG Export Plug-In . SVG Version: 6.00 Build 0)  -->
<!DOCTYPE svg PUBLIC "-//W3C//DTD SVG 1.1//EN" "http://www.w3.org/Graphics/SVG/1.1/DTD/svg11.dtd">
<svg version="1.1" id="Layer_1" xmlns="http://www.w3.org/2000/svg" xmlns:xlink="http://www.w3.org/1999/xlink" x="0px" y="0px"
	 width="980px" height="500px" viewBox="0 0 980 500" enable-background="new 0 0 980 500" xml:space="preserve">
<g>
	<path fill="#3FA9F5" d="M564.48,239c1.65,0,3.2,0.39,4.58,1.07c6.41-12.61,9.65-26.79,9.65-41.24c0-44.72-30.63-89.84-91.86-89.84
		H384v282h40V150h62.84c34.25,0,51.16,24.62,51.16,48.8c0,15.41-6.65,30.84-20.06,40.2H564.48L564.48,239z"/>
	<path fill="#0071BC" d="M506.05,287H529l35.47-37H564h-88h-39v17.32V285v53v38.42l37-38.07V338v-30l68.03,85h52.79l-89.04-105.95
		C505.87,287.03,505.96,287,506.05,287z"/>
</g>
<g>
	<path fill="#3FA9F5" d="M960,20v460H20V20H960 M980,0H0v500h980V0L980,0z"/>
</g>
</svg>
