<?xml version="1.0" encoding="utf-8"?>
<!-- Generator: Adobe Illustrator 16.2.1, SVG Export Plug-In . SVG Version: 6.00 Build 0)  -->
<!DOCTYPE svg PUBLIC "-//W3C//DTD SVG 1.1//EN" "http://www.w3.org/Graphics/SVG/1.1/DTD/svg11.dtd">
<svg version="1.1" id="Layer_1" xmlns="http://www.w3.org/2000/svg" xmlns:xlink="http://www.w3.org/1999/xlink" x="0px" y="0px"
	 width="200px" height="40px" viewBox="0 0 200 40" enable-background="new 0 0 200 40" xml:space="preserve">
<path fill="#3FA9F5" d="M33.44,32.01h15.68v4.87h-20.6V3.16h20.55v4.87H33.44v9.5h15.29v4.92H33.44V32.01z"/>
<path fill="#3FA9F5" d="M69.72,11.85c-0.67-3.04-3.96-4.34-6.9-4.29c-2.27,0.05-4.78,0.82-6.13,2.56c-0.68,0.87-0.92,1.98-0.82,3.14
	c0.24,3.47,4.05,3.91,7.67,4.25c4.63,0.58,10.37,1.78,11.67,7.19c0.14,0.72,0.24,1.54,0.24,2.22c0,6.51-6.46,10.28-12.54,10.28
	c-5.21,0-11.53-3.09-12.16-9.12l-0.05-0.92l4.92-0.1l0.05,0.72v-0.19c0.34,3.14,4.15,4.78,7.28,4.78c3.62,0,7.57-2.03,7.57-5.5
	c0-0.34-0.05-0.72-0.15-1.16c-0.58-2.56-4.05-2.99-7.43-3.33c-5.26-0.53-11.43-1.69-11.96-8.73v0.05c-0.19-2.27,0.39-4.54,1.83-6.42
	c2.27-2.94,6.32-4.49,10.23-4.49c5.21,0,10.61,2.7,11.48,8.88L69.72,11.85z"/>
<path fill="#3FA9F5" d="M90.28,3.12c7.29,0,10.95,5.64,10.95,11.29c0,5.64-3.67,11.24-10.95,11.24h-7.43v11.24h-4.92V3.12H90.28z
	 M90.28,20.82c4.1,0,6.13-3.18,6.13-6.37c0-3.23-2.03-6.42-6.13-6.42h-7.43v12.78H90.28z"/>
<path fill="#3FA9F5" d="M107.6,7.79c3.09-3.14,7.43-5.11,12.16-5.11c4.78,0,9.07,1.98,12.2,5.11c3.04,3.14,5.02,7.43,5.02,12.21
	c0,4.77-1.98,9.07-5.02,12.21c-3.14,3.18-7.43,5.11-12.2,5.11c-4.73,0-9.07-1.93-12.16-5.11c-3.04-3.13-5.02-7.43-5.02-12.21
	C102.59,15.22,104.56,10.93,107.6,7.79z M128.49,11.27c-2.27-2.27-5.4-3.67-8.73-3.67s-6.42,1.4-8.64,3.67
	c-2.22,2.22-3.62,5.31-3.62,8.73c0,3.42,1.4,6.51,3.62,8.73c2.22,2.27,5.31,3.67,8.64,3.67s6.46-1.4,8.73-3.67
	c2.17-2.22,3.57-5.26,3.57-8.73C132.06,16.53,130.66,13.49,128.49,11.27z"/>
<path fill="#3FA9F5" d="M140.03,36.88V3.07l3.76,0.05l16.45,23.78V3.12h4.82v33.77h-3.86l-16.3-23.59v23.59H140.03z"/>
<path fill="#3FA9F5" d="M180.56,3.16c11.05,0,16.59,8.44,16.59,16.88s-5.55,16.84-16.59,16.84h-12.11V3.16H180.56z M180.56,32.01
	c7.81,0,11.77-5.98,11.77-11.96c0-5.98-3.96-12.01-11.77-12.01h-7.24v23.97H180.56z"/>
<g>
	<path fill="#3FA9F5" d="M23.5,18.64c0.77-1.52,1.14-3.16,1.14-4.9C24.64,8.37,20.93,3,13.58,3H1v34h5V8h7.58
		c4.11,0,6.15,3.11,6.15,6.02c0,1.85-0.8,3.98-2.41,4.98H23C23,19,23.34,18.55,23.5,18.64z"/>
	<path fill="#0071BC" d="M15.89,24h2.76l4.26-4h-0.06H12.28H8v1.89v2.12v6.37V35l4-4.57v-0.04v-3.6L20.21,37h6.34l-10.7-12.86
		C15.86,24.14,15.88,24,15.89,24z"/>
</g>
</svg>
